<?xml version="1.0" encoding="UTF-8" standalone="no"?>
<!DOCTYPE svg PUBLIC "-//W3C//DTD SVG 1.1//EN" "http://www.w3.org/Graphics/SVG/1.1/DTD/svg11.dtd">
<svg width="100%" height="100%" viewBox="0 0 420 180" version="1.1" xmlns="http://www.w3.org/2000/svg" xmlns:xlink="http://www.w3.org/1999/xlink" xml:space="preserve" xmlns:serif="http://www.serif.com/" style="fill-rule:evenodd;clip-rule:evenodd;stroke-miterlimit:1.5;">
    <g transform="matrix(1,0,0,1,-402.858,-679.414)">
        <g>
            <g transform="matrix(0.588317,0,0,0.429694,162.265,592.536)">
                <path d="M1105.71,596.891L1105.71,289.076C1105.71,253.831 1084.84,225.259 1059.1,225.259L472.416,225.259C446.674,225.259 425.805,253.831 425.805,289.076L425.805,596.891" style="fill:none;stroke:white;stroke-width:21.35px;"/>
            </g>
            <g transform="matrix(1,0,0,0.502606,98.4605,568.056)">
                <path d="M514.312,241.288L514.312,539.732" style="fill:none;stroke:white;stroke-width:1.26px;"/>
            </g>
            <g transform="matrix(1,0,0,1,97.4717,336.89)">
                <path d="M333.487,352.439C333.487,352.439 353.237,361.385 355.101,384.938C356.16,398.327 355.101,502.439 355.101,502.439" style="fill:none;stroke:white;stroke-width:6.5px;"/>
            </g>
            <g transform="matrix(1,0,0,1,97.4717,336.89)">
                <path d="M357.527,499.483L319.982,509.257" style="fill:none;stroke:white;stroke-width:6px;"/>
            </g>
            <g transform="matrix(-1,0,0,1,1132.38,336.89)">
                <path d="M357.527,499.483L323.352,509.349" style="fill:none;stroke:white;stroke-width:6px;"/>
            </g>
            <g transform="matrix(1,0,0,1,113.18,336.89)">
                <path d="M333.487,352.439C333.487,352.439 353.237,361.385 355.101,384.938C356.16,398.327 355.101,502.439 355.101,502.439" style="fill:none;stroke:white;stroke-width:1px;"/>
            </g>
            <g transform="matrix(0.860492,0,0,1,176.616,336.89)">
                <path d="M333.487,352.439C333.487,352.439 353.237,361.385 355.101,384.938C356.16,398.327 355.101,502.439 355.101,502.439" style="fill:none;stroke:white;stroke-width:1.07px;"/>
            </g>
            <g transform="matrix(0.739017,0,0,1,232.209,336.89)">
                <path d="M333.487,352.439C333.487,352.439 353.237,361.385 355.101,384.938C356.16,398.327 355.101,502.439 355.101,502.439" style="fill:none;stroke:white;stroke-width:1.14px;"/>
            </g>
            <g transform="matrix(0.681521,0,0,1,266.512,336.89)">
                <path d="M333.487,352.439C333.487,352.439 353.237,361.385 355.101,384.938C356.16,398.327 355.101,502.439 355.101,502.439" style="fill:none;stroke:white;stroke-width:1.17px;"/>
            </g>
            <g transform="matrix(0.63831,0,0,1,295.414,336.89)">
                <path d="M333.487,352.439C333.487,352.439 353.237,361.385 355.101,384.938C356.16,398.327 355.101,502.439 355.101,502.439" style="fill:none;stroke:white;stroke-width:1.19px;"/>
            </g>
            <g transform="matrix(0.578618,0,0,1,329.73,336.89)">
                <path d="M333.487,352.439C333.487,352.439 353.237,361.385 355.101,384.938C356.16,398.327 355.101,502.439 355.101,502.439" style="fill:none;stroke:white;stroke-width:1.22px;"/>
            </g>
            <g transform="matrix(0.526414,0,0,1,363.989,336.89)">
                <path d="M333.487,352.439C333.487,352.439 353.237,361.385 355.101,384.938C356.16,398.327 355.101,502.439 355.101,502.439" style="fill:none;stroke:white;stroke-width:1.25px;"/>
            </g>
            <g transform="matrix(0.40416,0,0,1,421.67,336.89)">
                <path d="M333.487,352.439C333.487,352.439 353.237,361.385 355.101,384.938C356.16,398.327 355.101,502.439 355.101,502.439" style="fill:none;stroke:white;stroke-width:1.31px;"/>
            </g>
            <g transform="matrix(0.293247,0,0,1,476.664,336.89)">
                <path d="M333.487,352.439C333.487,352.439 353.237,361.385 355.101,384.938C356.16,398.327 355.101,502.439 355.101,502.439" style="fill:none;stroke:white;stroke-width:1.36px;"/>
            </g>
            <g transform="matrix(0.211574,0,0,1,520.803,336.89)">
                <path d="M333.487,352.439C333.487,352.439 353.237,361.385 355.101,384.938C356.16,398.327 355.101,502.439 355.101,502.439" style="fill:none;stroke:white;stroke-width:1.38px;"/>
            </g>
            <g transform="matrix(-1,0,0,1,1111.52,336.89)">
                <path d="M333.487,352.439C333.487,352.439 353.237,361.385 355.101,384.938C356.16,398.327 355.101,502.439 355.101,502.439" style="fill:none;stroke:white;stroke-width:1px;"/>
            </g>
            <g transform="matrix(-0.860492,0,0,1,1048.08,336.89)">
                <path d="M333.487,352.439C333.487,352.439 353.237,361.385 355.101,384.938C356.16,398.327 355.101,502.439 355.101,502.439" style="fill:none;stroke:white;stroke-width:1.07px;"/>
            </g>
            <g transform="matrix(-0.739017,0,0,1,992.49,336.89)">
                <path d="M333.487,352.439C333.487,352.439 353.237,361.385 355.101,384.938C356.16,398.327 355.101,502.439 355.101,502.439" style="fill:none;stroke:white;stroke-width:1.14px;"/>
            </g>
            <g transform="matrix(-0.681521,0,0,1,958.187,336.89)">
                <path d="M333.487,352.439C333.487,352.439 353.237,361.385 355.101,384.938C356.16,398.327 355.101,502.439 355.101,502.439" style="fill:none;stroke:white;stroke-width:1.17px;"/>
            </g>
            <g transform="matrix(-0.63831,0,0,1,929.285,336.89)">
                <path d="M333.487,352.439C333.487,352.439 353.237,361.385 355.101,384.938C356.16,398.327 355.101,502.439 355.101,502.439" style="fill:none;stroke:white;stroke-width:1.19px;"/>
            </g>
            <g transform="matrix(-0.578618,0,0,1,894.968,336.89)">
                <path d="M333.487,352.439C333.487,352.439 353.237,361.385 355.101,384.938C356.16,398.327 355.101,502.439 355.101,502.439" style="fill:none;stroke:white;stroke-width:1.22px;"/>
            </g>
            <g transform="matrix(-0.526414,0,0,1,860.71,336.89)">
                <path d="M333.487,352.439C333.487,352.439 353.237,361.385 355.101,384.938C356.16,398.327 355.101,502.439 355.101,502.439" style="fill:none;stroke:white;stroke-width:1.25px;"/>
            </g>
            <g transform="matrix(-0.40416,0,0,1,803.029,336.89)">
                <path d="M333.487,352.439C333.487,352.439 353.237,361.385 355.101,384.938C356.16,398.327 355.101,502.439 355.101,502.439" style="fill:none;stroke:white;stroke-width:1.31px;"/>
            </g>
            <g transform="matrix(-0.293247,0,0,1,748.034,336.89)">
                <path d="M333.487,352.439C333.487,352.439 353.237,361.385 355.101,384.938C356.16,398.327 355.101,502.439 355.101,502.439" style="fill:none;stroke:white;stroke-width:1.36px;"/>
            </g>
            <g transform="matrix(-0.211574,0,0,1,703.896,336.89)">
                <path d="M333.487,352.439C333.487,352.439 353.237,361.385 355.101,384.938C356.16,398.327 355.101,502.439 355.101,502.439" style="fill:none;stroke:white;stroke-width:1.38px;"/>
            </g>
            <g transform="matrix(-1,0,0,1,1131.32,336.89)">
                <path d="M333.487,352.439C333.487,352.439 353.237,361.385 355.101,384.938C356.16,398.327 355.101,502.439 355.101,502.439" style="fill:none;stroke:white;stroke-width:6.5px;"/>
            </g>
            <g transform="matrix(1.01071,0,0,1,90.9271,273.373)">
                <path d="M357.005,442.16L677.565,442.16" style="fill:none;stroke:white;stroke-width:0.99px;"/>
            </g>
            <g transform="matrix(1.01071,0,0,1,90.9271,286.368)">
                <path d="M357.005,442.16L677.565,442.16" style="fill:none;stroke:white;stroke-width:0.99px;"/>
            </g>
            <g transform="matrix(1.01071,0,0,1,90.9271,298.881)">
                <path d="M357.005,442.16L677.565,442.16" style="fill:none;stroke:white;stroke-width:0.99px;"/>
            </g>
            <g transform="matrix(1.01071,0,0,1,90.9271,310.844)">
                <path d="M357.005,442.16L677.565,442.16" style="fill:none;stroke:white;stroke-width:0.99px;"/>
            </g>
            <g transform="matrix(1.01071,0,0,1,90.9271,323.84)">
                <path d="M357.005,442.16L677.565,442.16" style="fill:none;stroke:white;stroke-width:0.99px;"/>
            </g>
            <g transform="matrix(1.01071,0,0,1,90.9271,336.353)">
                <path d="M357.005,442.16L677.565,442.16" style="fill:none;stroke:white;stroke-width:0.99px;"/>
            </g>
            <g transform="matrix(1.01071,0,0,1,90.9271,348.422)">
                <path d="M357.005,442.16L677.565,442.16" style="fill:none;stroke:white;stroke-width:0.99px;"/>
            </g>
            <g transform="matrix(1.01071,0,0,1,90.9271,361.417)">
                <path d="M357.005,442.16L677.565,442.16" style="fill:none;stroke:white;stroke-width:0.99px;"/>
            </g>
            <g transform="matrix(1.01071,0,0,1,90.9271,373.93)">
                <path d="M357.005,442.16L677.565,442.16" style="fill:none;stroke:white;stroke-width:0.99px;"/>
            </g>
            <g transform="matrix(1.01071,0,0,1,90.9271,386.425)">
                <path d="M357.005,442.16L677.565,442.16" style="fill:none;stroke:white;stroke-width:0.99px;"/>
            </g>
            <g transform="matrix(1.01071,0,0,1,90.9271,396.668)">
                <path d="M357.005,442.16L677.565,442.16" style="fill:none;stroke:white;stroke-width:0.99px;"/>
            </g>
        </g>
    </g>
</svg>
